<svg width="354" height="801" viewBox="0 0 354 801" fill="none" xmlns="http://www.w3.org/2000/svg">
<g opacity="0.4">
<path d="M-39.3241 462.675C-4.47723 455.543 17.9035 421.931 10.6646 387.6C3.42574 353.269 -30.6915 331.219 -65.5384 338.351C-100.385 345.483 -122.766 379.095 -115.527 413.426C-108.288 447.757 -74.171 469.807 -39.3241 462.675Z" stroke="url(#paint0_linear_109_636)" stroke-miterlimit="10"/>
<path d="M-102.267 475.363C-60.3211 502.472 -4.01038 490.947 23.5061 449.622C51.0227 408.296 39.325 352.819 -2.62124 325.709C-44.5675 298.6 -100.878 310.124 -128.395 351.45C-155.911 392.776 -144.214 448.253 -102.267 475.363Z" stroke="url(#paint1_linear_109_636)" stroke-miterlimit="10"/>
<path d="M-27.0844 520.723C40.3031 506.932 83.5832 441.932 69.5846 375.541C55.5859 309.151 -10.3906 266.511 -77.778 280.303C-145.165 294.094 -188.446 359.094 -174.447 425.485C-160.448 491.875 -94.4718 534.515 -27.0844 520.723Z" stroke="url(#paint2_linear_109_636)" stroke-miterlimit="10"/>
<path d="M-20.497 551.965C64.404 534.59 118.932 452.696 101.295 369.051C83.6587 285.407 0.535495 231.685 -84.3655 249.061C-169.266 266.437 -223.795 348.33 -206.158 431.975C-188.521 515.62 -105.398 569.341 -20.497 551.965Z" stroke="url(#paint3_linear_109_636)" stroke-miterlimit="10"/>
<path d="M-165.213 569.898C-70.2725 631.257 57.1806 605.172 119.461 511.636C181.742 418.1 155.265 292.533 60.3247 231.174C-34.6161 169.815 -162.069 195.9 -224.35 289.436C-286.63 382.972 -260.154 508.539 -165.213 569.898Z" stroke="url(#paint4_linear_109_636)" stroke-miterlimit="10"/>
<path d="M-205.167 629.902C-76.5888 713 96.0204 677.674 180.367 550.999C264.713 424.323 228.856 254.268 100.278 171.17C-28.2996 88.0717 -200.909 123.398 -285.255 250.073C-369.601 376.748 -333.744 546.803 -205.167 629.902Z" stroke="url(#paint5_linear_109_636)" stroke-miterlimit="10"/>
<path d="M-238.212 679.53C-81.8131 780.608 128.144 737.638 230.74 583.554C333.337 429.47 289.721 222.62 133.323 121.541C-23.0754 20.4629 -233.032 63.4327 -335.629 217.517C-438.225 371.601 -394.61 578.451 -238.212 679.53Z" stroke="url(#paint6_linear_109_636)" stroke-miterlimit="10"/>
<path d="M-259.998 712.25C-85.2573 825.182 149.323 777.173 263.951 605.019C378.58 432.864 329.85 201.755 155.109 88.8224C-19.6311 -24.1101 -254.211 23.899 -368.84 196.054C-483.468 368.209 -434.738 599.317 -259.998 712.25Z" stroke="url(#paint7_linear_109_636)" stroke-miterlimit="10"/>
<path d="M-274.894 734.503C-87.6594 855.51 163.694 804.068 286.519 619.604C409.344 435.139 357.129 187.505 169.894 66.4974C-17.3406 -54.5102 -268.694 -3.06822 -391.519 181.396C-514.344 365.861 -462.129 613.495 -274.894 734.503Z" stroke="url(#paint8_linear_109_636)" stroke-miterlimit="10"/>
</g>
<defs>
<linearGradient id="paint0_linear_109_636" x1="311.04" y1="708.984" x2="-121.753" y2="373.552" gradientUnits="userSpaceOnUse">
<stop stop-color="#F9BDB1" stop-opacity="0.24"/>
<stop offset="1" stop-color="#040327"/>
</linearGradient>
<linearGradient id="paint1_linear_109_636" x1="311.04" y1="708.984" x2="-121.753" y2="373.552" gradientUnits="userSpaceOnUse">
<stop stop-color="#F9BDB1" stop-opacity="0.24"/>
<stop offset="1" stop-color="#040327"/>
</linearGradient>
<linearGradient id="paint2_linear_109_636" x1="311.04" y1="708.984" x2="-121.753" y2="373.552" gradientUnits="userSpaceOnUse">
<stop stop-color="#F9BDB1" stop-opacity="0.24"/>
<stop offset="1" stop-color="#040327"/>
</linearGradient>
<linearGradient id="paint3_linear_109_636" x1="311.04" y1="708.984" x2="-121.753" y2="373.552" gradientUnits="userSpaceOnUse">
<stop stop-color="#F9BDB1" stop-opacity="0.24"/>
<stop offset="1" stop-color="#040327"/>
</linearGradient>
<linearGradient id="paint4_linear_109_636" x1="311.04" y1="708.984" x2="-121.753" y2="373.552" gradientUnits="userSpaceOnUse">
<stop stop-color="#F9BDB1" stop-opacity="0.24"/>
<stop offset="1" stop-color="#040327"/>
</linearGradient>
<linearGradient id="paint5_linear_109_636" x1="311.04" y1="708.984" x2="-121.753" y2="373.552" gradientUnits="userSpaceOnUse">
<stop stop-color="#F9BDB1" stop-opacity="0.24"/>
<stop offset="1" stop-color="#040327"/>
</linearGradient>
<linearGradient id="paint6_linear_109_636" x1="311.04" y1="708.984" x2="-121.753" y2="373.552" gradientUnits="userSpaceOnUse">
<stop stop-color="#F9BDB1" stop-opacity="0.24"/>
<stop offset="1" stop-color="#040327"/>
</linearGradient>
<linearGradient id="paint7_linear_109_636" x1="311.04" y1="708.984" x2="-121.753" y2="373.552" gradientUnits="userSpaceOnUse">
<stop stop-color="#F9BDB1" stop-opacity="0.24"/>
<stop offset="1" stop-color="#040327"/>
</linearGradient>
<linearGradient id="paint8_linear_109_636" x1="311.04" y1="708.984" x2="-121.753" y2="373.552" gradientUnits="userSpaceOnUse">
<stop stop-color="#F9BDB1" stop-opacity="0.24"/>
<stop offset="1" stop-color="#040327"/>
</linearGradient>
</defs>
</svg>
