<svg width="259" height="1018" viewBox="0 0 259 1018" fill="none" xmlns="http://www.w3.org/2000/svg">
<ellipse cx="250.222" cy="274.098" rx="1.02131" ry="0.794487" fill="#C4C4C4"/>
<ellipse cx="190.475" cy="467.554" rx="0.510657" ry="0.396744" fill="#C4C4C4"/>
<ellipse cx="192.517" cy="368.244" rx="0.510657" ry="0.396744" fill="#C4C4C4"/>
<ellipse cx="185.368" cy="315.809" rx="0.510657" ry="0.396744" fill="#C4C4C4"/>
<ellipse cx="185.368" cy="214.113" rx="0.510657" ry="0.396744" fill="#C4C4C4"/>
<ellipse cx="183.837" cy="900.153" rx="1.02131" ry="0.794487" fill="#C4C4C4"/>
<ellipse cx="158.304" cy="554.552" rx="1.02131" ry="0.794487" fill="#C4C4C4"/>
<ellipse cx="148.09" cy="523.566" rx="1.02131" ry="0.794487" fill="#C4C4C4"/>
<ellipse cx="146.559" cy="828.251" rx="0.510657" ry="0.396744" fill="#C4C4C4"/>
<ellipse cx="234.392" cy="897.372" rx="0.510657" ry="0.396744" fill="#C4C4C4"/>
<ellipse cx="185.368" cy="890.222" rx="0.510657" ry="0.396744" fill="#C4C4C4"/>
<ellipse cx="204.773" cy="536.676" rx="0.510657" ry="0.396744" fill="#C4C4C4"/>
<ellipse cx="157.793" cy="697.956" rx="0.510657" ry="0.396744" fill="#C4C4C4"/>
<ellipse cx="150.644" cy="645.52" rx="0.510657" ry="0.396744" fill="#C4C4C4"/>
<ellipse cx="193.539" cy="22.6427" rx="0.510657" ry="0.396744" fill="#C4C4C4"/>
<ellipse cx="114.387" cy="128.707" rx="1.02131" ry="0.794487" fill="#C4C4C4"/>
<ellipse cx="11.2344" cy="929.549" rx="1.02131" ry="0.794487" fill="#C4C4C4"/>
<ellipse cx="1.02131" cy="898.564" rx="1.02131" ry="0.794487" fill="#C4C4C4"/>
</svg>
